<svg preserveAspectRatio="none" overflow="visible" style="display: block;" width="17" height="17" viewBox="0 0 17 17" fill="none" xmlns="http://www.w3.org/2000/svg">
<g id="akar-icons:tiktok-fill">
<path id="Vector" d="M13.6857 3.93975C13.5781 3.88424 13.4733 3.82324 13.3719 3.757C13.0769 3.56217 12.8065 3.33242 12.5665 3.07275C11.9652 2.38496 11.7406 1.68725 11.6585 1.19921H11.6613C11.5926 0.793333 11.6209 0.53125 11.6259 0.53125H8.88817V11.1159C8.88911 11.2575 8.88722 11.398 8.8825 11.5373L8.87967 11.589C8.87967 11.5966 8.87896 11.6044 8.87754 11.6124V11.6188C8.84879 11.9985 8.72717 12.3653 8.52336 12.6869C8.31956 13.0085 8.03983 13.2752 7.70879 13.4633C7.36376 13.6606 6.97291 13.7637 6.57546 13.7622C5.30046 13.7622 4.26629 12.7224 4.26629 11.4382C4.26629 10.154 5.30046 9.11342 6.57546 9.11342C6.817 9.11342 7.05712 9.15167 7.28662 9.22675L7.29017 6.43875C6.59318 6.34891 5.88514 6.4045 5.21071 6.602C4.53628 6.7995 3.9101 7.13463 3.37167 7.58625C2.89999 7.99622 2.5033 8.48519 2.19938 9.03125C2.08392 9.23029 1.64758 10.0314 1.59517 11.3305C1.56188 12.0672 1.78358 12.8322 1.88913 13.1474V13.1545C1.955 13.34 2.21283 13.9747 2.63217 14.5095C2.97066 14.9384 3.37014 15.3155 3.81792 15.6287V15.6216L3.82429 15.6287C5.14888 16.5282 6.61867 16.4695 6.61867 16.4695C6.87296 16.4588 7.72508 16.4695 8.69267 16.0112C9.76579 15.5026 10.3764 14.7454 10.3764 14.7454C10.7671 14.2931 11.0776 13.7773 11.2944 13.2203C11.5423 12.5687 11.6245 11.7881 11.6245 11.4764V5.86004C11.6577 5.87987 12.1005 6.17242 12.1005 6.17242C12.1005 6.17242 12.738 6.58113 13.7318 6.84675C14.4443 7.03588 15.4055 7.07625 15.4055 7.07625V4.35837C15.0691 4.39521 14.3855 4.28896 13.685 3.94046" fill="#0A0200"/>
</g>
</svg>
