<svg preserveAspectRatio="none" overflow="visible" style="display: block;" width="106.935" height="30.0837" viewBox="0 0 106.935 30.0837" fill="none" xmlns="http://www.w3.org/2000/svg">
<g id="Brand / Logo">
<path id="Vector" d="M25.5684 1.20365C28.4386 1.0815 31.5656 1.06224 34.4678 1.23002L34.669 1.25638C34.8594 1.29483 35.0143 1.36329 35.1026 1.40482C35.1987 1.45005 35.2914 1.50226 35.376 1.55228C35.5627 1.45291 35.7565 1.37099 35.961 1.30814C36.429 1.1643 36.8944 1.13343 37.3467 1.14017H37.3477C39.799 1.17912 42.6049 1.01158 45.2139 1.23197C45.6896 1.27219 46.0853 1.47574 46.3877 1.69584C46.6461 1.48427 46.9866 1.28915 47.4082 1.2349L47.8946 1.18314C49.0477 1.08518 50.3043 1.13323 51.2832 1.13431H64.7256C65.8073 1.13452 66.9894 1.11573 68.127 1.16459C68.5002 1.18064 68.829 1.28168 69.1016 1.39896C69.2813 1.31121 69.5297 1.21679 69.8116 1.19779V1.19681C72.043 1.04708 74.4483 1.1663 76.543 1.13138C77.2447 1.11971 78.0422 1.11213 78.8379 1.23392L78.9756 1.26029C79.2247 1.31839 79.4442 1.42389 79.6075 1.51322C79.8901 1.36441 80.233 1.2339 80.6104 1.20756C82.8134 1.05409 85.1479 1.15603 87.2276 1.13041C87.8126 1.12319 88.4826 1.08249 89.0918 1.17045C89.5287 1.23354 89.9436 1.35997 90.3663 1.57377C90.7939 1.30761 91.2918 1.14958 91.8916 1.1431V1.14213C93.1441 1.12657 94.4031 1.13213 95.6504 1.13724C96.901 1.14237 98.1408 1.14687 99.3702 1.13041C100.419 1.11639 101.193 1.29371 101.837 1.88334C102.105 2.12915 102.317 2.41872 102.485 2.65092C102.667 2.90176 102.84 3.14669 103.078 3.43021L103.104 3.46146C103.301 3.71431 103.814 4.25809 104.43 4.97611C104.711 5.30429 105 5.65401 105.228 5.9683C105.341 6.12461 105.452 6.29128 105.543 6.45463C105.608 6.57186 105.715 6.77691 105.765 7.02201L105.782 7.12845L105.815 7.50834C105.867 8.44899 105.748 9.7466 105.611 10.9165C105.457 12.2325 105.23 13.7431 105.148 14.4156L104.732 17.7847C104.689 18.1395 104.626 18.7279 104.544 19.2837C104.5 19.5802 104.443 19.9104 104.371 20.2261C104.609 20.5101 104.827 20.834 104.973 21.2085C105.23 21.8701 105.223 22.5676 104.97 23.3023L104.967 23.3091L104.965 23.316C104.857 23.6165 104.751 23.9475 104.627 24.3247C104.506 24.6926 104.371 25.0931 104.218 25.4898C103.92 26.2615 103.513 27.1313 102.892 27.7915C102.518 28.1879 102.029 28.3708 101.623 28.4546C101.203 28.5413 100.759 28.5465 100.347 28.5025C99.9318 28.4581 99.5092 28.3592 99.125 28.2095C99.0456 28.1785 98.9653 28.1423 98.8838 28.104C98.4072 28.3535 97.8776 28.4725 97.4414 28.5142C97.0417 28.5524 96.6213 28.5385 96.2256 28.4576C95.8433 28.3793 95.4021 28.2218 95.0411 27.9078C94.6204 27.5418 94.2071 27.051 93.8536 26.604C93.6722 26.3747 93.4947 26.1424 93.3311 25.9273C93.1648 25.7086 93.015 25.5109 92.877 25.3365V25.3355C92.7298 25.1643 92.4356 24.8094 92.1709 24.4947C92.1582 24.5113 92.1475 24.5293 92.1348 24.5454C91.0657 25.901 89.3515 27.0519 87.8565 27.816L87.2325 28.1187C86.4679 28.4699 85.2139 28.7382 84.5254 28.8413C80.173 29.4936 75.9973 27.676 73.2618 24.3697V24.3706C73.1199 24.1992 72.8309 23.8318 72.503 23.4175C72.4942 24.0325 72.4874 24.6279 72.501 25.2105C72.5147 25.8014 72.3215 26.4322 72.042 26.939C71.7741 27.4248 71.3004 28.0237 70.583 28.2622C69.9878 28.4601 69.2177 28.5005 68.5977 28.5093C67.9971 28.5179 67.2274 28.4927 66.8653 28.4927L61.7989 28.4917H54.6563L52.67 28.4966C52.0024 28.497 51.3299 28.4936 50.6553 28.4781C50.0744 28.4647 49.553 28.3874 49.0596 28.0865C48.6451 27.8336 48.306 27.4385 48.0342 27.148C47.6567 26.7444 47.3113 26.3258 46.9883 25.9312C46.9216 25.8497 46.8549 25.7702 46.7901 25.691C44.4538 27.6802 41.8482 28.9898 38.5069 28.9751C35.2111 28.9605 32.0634 27.5516 29.7793 25.2242C29.5366 24.9768 29.3056 24.7136 29.085 24.4488C29.0816 24.6617 29.0777 24.8657 29.0713 25.0523C29.0589 25.417 29.0381 25.8422 28.9795 26.1011L28.9786 26.104C28.8682 26.5854 28.6556 27.0363 28.3565 27.4273L28.2237 27.5913C27.5748 28.3392 26.5831 28.4648 26.0362 28.4781C24.8017 28.5079 23.5261 28.4932 22.3243 28.4917V28.4908L15.25 28.4878L9.92875 28.4947C9.09805 28.4964 8.10218 28.5186 7.17192 28.4693L6.77836 28.4439C6.27283 28.4041 5.86692 28.1528 5.5977 27.9449C5.3133 27.7252 5.05864 27.4559 4.8477 27.2115C4.63392 26.9637 4.43263 26.7026 4.26762 26.4888C4.08915 26.2576 3.96718 26.1008 3.87406 25.9986L3.85746 25.981L3.84184 25.9624C3.70319 25.796 3.51963 25.5866 3.30082 25.3365C3.08691 25.0919 2.84605 24.8159 2.61137 24.5347C2.17254 24.0089 1.64839 23.3435 1.39457 22.774C1.30173 22.5656 1.25535 22.3413 1.22758 22.1744C1.19694 21.9901 1.17634 21.7875 1.16117 21.5845C1.13081 21.178 1.1193 20.7073 1.11723 20.2525C1.11515 19.7946 1.12175 19.3356 1.12895 18.9488C1.13635 18.5509 1.14358 18.2508 1.1436 18.0767V18.0757L1.14555 11.2652V6.53275C1.14469 6.03947 1.04834 4.88442 1.16313 3.97416C1.28129 3.03766 1.69002 1.70408 3.14653 1.28275C3.60394 1.15048 4.05396 1.14523 4.32621 1.13529H14.2266L16.7979 1.13041C17.6612 1.13022 18.5284 1.13441 19.3926 1.15287H19.3995C19.9719 1.16851 20.524 1.24546 21.0391 1.54642C21.5335 1.83541 21.8725 2.26431 22.167 2.6724C22.5156 3.15535 22.8871 3.62369 23.2745 4.08646C23.3156 3.59593 23.407 3.05931 23.6172 2.58646C23.7619 2.261 23.9834 1.91942 24.3252 1.65189C24.6796 1.37457 25.1047 1.22337 25.5684 1.20365Z" fill="black" stroke="white" stroke-width="2.21634"/>
<path id="Vector_2" d="M3.8036 3.91247C6.2366 3.85737 8.85664 3.90246 11.306 3.90156C14.0652 3.90056 16.9492 3.86143 19.6963 3.9169C19.7505 4.82025 19.7199 5.95243 19.7196 6.87776L19.7173 12.0652C19.717 12.9286 19.6896 14.0137 19.7552 14.854C20.8697 14.9166 22.0654 14.8188 23.1737 14.9099C23.2356 16.4072 23.1559 17.9566 23.1869 19.459C23.2026 20.2263 23.1983 21.0617 23.1569 21.827C20.985 21.951 17.9095 21.8627 15.6841 21.8627C13.2185 21.8737 10.7529 21.8628 8.28747 21.8299C6.7947 21.8366 5.30188 21.8305 3.80924 21.8116C3.74987 19.84 3.79983 17.5812 3.79975 15.5814L3.8036 3.91247Z" fill="#37D1C2"/>
<path id="Vector_3" d="M80.8723 3.94195C81.7354 3.87683 82.9824 3.90926 83.8718 3.90926L89.0463 3.91348C89.0769 4.74248 89.0521 5.74664 89.0521 6.58952L89.0532 11.6828L89.0543 11.9971C89.0574 14.9947 88.499 17.5214 86.2535 19.5606C85.8786 19.9011 85.5396 20.3087 85.123 20.601C81.4939 23.1491 76.2409 22.8684 73.0968 19.7098C69.8885 16.4867 70.1706 13.9019 70.1695 9.85909L70.1742 3.91095L75.3271 3.90931C76.2915 3.90905 77.5036 3.87683 78.4485 3.94374C78.5075 7.08129 78.3952 10.2302 78.4838 13.3707C78.527 14.8841 80.4763 14.7125 80.7774 13.7046C80.8944 13.3118 80.838 11.798 80.8375 11.2934L80.8312 6.67947C80.8301 5.89106 80.7948 4.69498 80.8723 3.94195Z" fill="#EA173E"/>
<path id="Vector_4" d="M36.647 3.95882C37.4161 3.86223 38.8086 3.90235 39.6183 3.9032L44.804 3.91058C44.8444 5.01181 44.8022 6.14773 44.7899 7.2517L44.7848 11.3137L44.7865 12.5823C44.7768 15.0196 44.1723 17.4101 42.4007 19.1917C41.891 19.6411 41.3658 20.2789 40.8085 20.6525C35.1629 24.4375 27.7438 21.5293 26.1159 14.937C25.7535 13.4696 25.8943 11.3639 25.8937 9.84965L25.9039 3.91184C27.5884 3.89033 29.3075 3.90873 30.9958 3.90399C31.8596 3.90151 33.3828 3.8607 34.1974 3.95513C34.2561 4.66656 34.2212 5.83443 34.2207 6.58799L34.2175 11.4186C34.2172 12.1033 34.1007 13.8907 34.45 14.4328C34.8902 15.116 36.4573 14.9647 36.5521 13.9114C36.6201 13.1552 36.6011 12.4053 36.6001 11.6218L36.5922 6.75033C36.591 6.00695 36.5531 4.65665 36.647 3.95882Z" fill="#F8C317"/>
<path id="Vector_5" d="M48.6618 3.87898L68.1298 3.89412C67.1027 4.99877 66.2676 6.39695 65.3654 7.56994L62.2114 11.6996C61.644 12.4397 61.0076 13.1109 60.5489 13.9119C61.8534 14.0117 63.239 13.9568 64.5487 13.9736C65.1208 13.9809 66.0414 13.939 66.5823 14.0361C66.6619 16.4856 66.5939 19.3289 66.5929 21.808L66.0809 21.8264L54.195 21.8288L49.9717 21.8294C49.4416 21.8298 47.356 21.9152 47.03 21.6749C47.0372 21.152 49.1582 18.5901 49.4916 18.1003C50.4737 16.5832 51.5492 15.2054 52.6364 13.7754C53.0835 13.188 54.0268 11.8515 54.3479 11.2387C52.4376 11.2334 49.7979 11.3072 47.9335 11.2077C47.847 9.22848 47.924 7.21425 47.8973 5.23119C47.8913 4.7904 47.9 4.34687 47.9276 3.90687L48.6618 3.87898Z" fill="#F9D7F3"/>
<path id="Vector_6" d="M91.6896 3.91029C94.4377 3.86189 97.3486 3.89321 100.105 3.91155C99.9717 5.9039 99.5916 8.02426 99.2974 9.99973C99.0823 11.4425 98.9167 12.9582 98.7395 14.4112L98.5703 15.778C96.9775 15.8152 94.6175 15.8402 93.0468 15.7593C92.6956 11.8661 92.0914 7.82712 91.6896 3.91029Z" fill="#37D1C2"/>
<path id="Vector_7" d="M98.2807 18.2559C98.5596 18.2894 99.0041 18.289 99.2973 18.296C98.8939 19.4937 98.4716 20.6849 98.0297 21.869C97.715 21.88 97.3881 21.8646 97.0722 21.8553C96.8935 21.3245 96.6626 20.7951 96.4464 20.2771C96.1617 19.5708 95.9502 19.0139 95.7072 18.2912L96.8729 18.2898C97.0617 18.9914 97.4245 19.7194 97.5289 20.4238C97.7123 19.7292 98.0282 18.937 98.2807 18.2559Z" fill="#FEFEFE"/>
<path id="Vector_8" d="M92.5913 18.2831C93.3738 18.3188 94.5127 18.2799 95.3283 18.286L95.3273 19.1964C95.0621 19.1844 94.7968 19.1698 94.5316 19.1524C94.509 19.7662 94.5127 20.3995 94.5079 21.0151L94.5016 21.8578C94.1884 21.8685 93.8393 21.8612 93.523 21.8607C93.4713 21.0861 93.5014 19.9846 93.4987 19.186C93.1792 19.1761 92.9098 19.1733 92.5908 19.1838L92.5913 18.2831Z" fill="#FEFEFE"/>
</g>
</svg>
